<svg xmlns:xlink="http://www.w3.org/1999/xlink" xmlns="http://www.w3.org/2000/svg" xml:space="preserve" viewBox="4.3333375 6.3333375 43.875 40.375" y="0px" x="0px" version="1.1" style="max-height: 500px" width="43.875" height="40.375"><path d="M41.965,20.694c-0.495-2.083-2.273-3.54-4.182-3.54c-1.816,0-3.717,1.149-5.184,2.522  c-3.911-5.328-9.661-9.706-13.112-12.527c-0.713,1.656-1.029,3.449-1.029,5.271c0,1.999,0.395,4.832,1.042,6.768L26,19.667H5.121  c2.5,5.762,7.472,9.976,13.329,12.333c-3.699,2.583-6.778,4.415-10.271,6.815c2.034,2.034,3.384,2.935,6.606,4.035  c2.205-3.185,3.991-5.396,5.582-7.654c2.219,0.988,4.734,1.532,7.207,1.532c11.183,0,14.263-12.188,14.509-14.603  c0.972-0.161,1.946-0.328,2.918-0.455C43.971,21.4,42.953,21.075,41.965,20.694z M38.863,20.814c-0.426,0-0.769-0.345-0.769-0.769  c0-0.426,0.343-0.768,0.769-0.768c0.424,0,0.769,0.342,0.769,0.768C39.632,20.469,39.287,20.814,38.863,20.814z" fill="#ffffff"/><text font-family="'Helvetica Neue', Helvetica, Arial-Unicode, Arial, Sans-serif" font-weight="bold" font-size="5px" fill="#ffffff" y="65" x="0">Created by Kick</text><text font-family="'Helvetica Neue', Helvetica, Arial-Unicode, Arial, Sans-serif" font-weight="bold" font-size="5px" fill="#ffffff" y="70" x="0">from the Noun Project</text></svg>
