<svg xmlns="http://www.w3.org/2000/svg" viewBox="11.396405405405403 3.9500089999999997 74.86486486486487 92.34" version="1.1" style="max-height: 500px" width="74.86486486486487" height="92.34">
 <path d="m44 10c-2.4297 0-4.3789 1.9492-4.3789 4.3789v33.078c0 0.44922-0.28125 0.83984-0.67188 1.0117-0.12891 0.050781-0.26953 0.078125-0.42188 0.078125-0.60156 0-1.0898-0.48828-1.0898-1.0898v-28.59c0-2.4297-1.9492-4.3789-4.3789-4.3789-2.4297 0-4.3789 1.9492-4.3789 4.3789v31.461c0 0.44922-0.26953 0.83984-0.66016 1.0117-0.12891 0.050781-0.26953 0.078125-0.42188 0.078125-0.60156 0-1.0898-0.48828-1.0898-1.0898v-16.379c0-2.4297-1.9492-4.3789-4.3789-4.3789-2.4297 0-4.3789 1.9492-4.3789 4.3789v29.578c0 14.66 11.809 26.469 26.469 26.469 10.16 0 18.488-6.0898 23.379-14.031 4.8984-7.9414 10.102-17.781 12.84-23.039 2.75-5.2617 2.0781-8.1289 0-9.7617-2.0781-1.6289-5.7695-1.5586-7.8008 1.9492-2.0391 3.5117-2.7812 8.9219-7.8008 9.7617-3.7891 0-5-1.3086-5.5117-7.8008v-26.98c0-2.4297-1.9492-4.3789-4.3789-4.3789-2.4297 0-4.3789 1.9492-4.3789 4.3789v24.172c0 0.44922-0.26953 0.83984-0.66016 1-0.12891 0.050781-0.26953 0.078125-0.42188 0.078125-0.60156 0-1.0898-0.48047-1.0898-1.0898l0.003907-29.875c0-2.4297-1.9492-4.3789-4.3789-4.3789z" fill="#ffffff"/>
<text fill="#ffffff" font-family="Arbeit Regular, Helvetica, Arial-Unicode, Arial, Sans-serif" font-weight="bold" font-size="5.0" y="117.5" x="0.0">Created by lailistudio</text><text fill="#ffffff" font-family="Arbeit Regular, Helvetica, Arial-Unicode, Arial, Sans-serif" font-weight="bold" font-size="5.0" y="122.5" x="0.0">from Noun Project</text></svg>
